<svg
        width="24"
        height="24"
        viewBox="0 0 24 24"
        version="1.1"
        xmlns="http://www.w3.org/2000/svg">
    <g>
        <g
                id="g10"
                transform="matrix(0.771766,0,0,0.771766,-52.17705,-74.624134)">
            <path
                    id="path5"
                    style="fill:#797979;stroke-width:1.03633;stroke-linecap:round;stroke-miterlimit:7.4;paint-order:markers stroke fill"
                    d="m 88.77149,127.0479 -5.072277,-12.17773 c -0.448228,-1.02544 -1.235643,-1.53299 -2.351058,-1.53972 l -13.603931,-0.0538 c -0.626463,-0.002 1.051328,-1.31785 1.923152,-1.84225 L 91.650769,98.211386 c 0.87183,-0.524406 1.512121,-0.106655 1.37633,0.901393 l -3.419081,25.381291 c -0.135783,1.00803 -0.297397,2.90699 -0.836554,2.55388"/>
            <path
                    id="rect4"
                    style="fill:#f6c783;fill-opacity:1;stroke-width:1.03633;stroke-linecap:round;stroke-miterlimit:7.4;paint-order:markers stroke fill"
                    d="m 88.777154,127.05142 -5.910256,-10.82941 c -0.448228,-1.02545 -1.235643,-1.533 -2.351059,-1.53972 l -12.765952,-1.40215 c -0.622723,-0.0684 1.051328,-1.31784 1.923152,-1.84224 L 91.656432,98.214906 c 0.871831,-0.524406 1.512122,-0.106655 1.376331,0.901392 l -3.419082,25.381292 c -0.135783,1.00803 -0.297397,2.90699 -0.836554,2.55388"
            />
            <ellipse
                    style="fill:none;stroke:#ffffff;stroke-width:1.16227;stroke-linecap:round;stroke-miterlimit:7.4;stroke-opacity:1;paint-order:markers stroke fill"
                    id="ellipse5"
                    ry="6.6756516"
                    rx="13.475368"
                    cy="42.110119"
                    cx="130.84319"
                    transform="matrix(0.83506739,0.55014766,-0.54548727,0.83811911,0,0)"/>
            <ellipse
                    style="fill:none;stroke:#f6c783;stroke-width:1.29681;stroke-linecap:round;stroke-miterlimit:7.4;stroke-dasharray:none;stroke-opacity:1;paint-order:markers stroke fill"
                    id="path4"
                    ry="6.1904287"
                    rx="13.09929"
                    cy="42.192593"
                    cx="131.02336"
                    transform="matrix(0.83741892,0.54656157,-0.54929766,0.83562676,0,0)"/>
            <g
                    id="g9"
                    transform="matrix(0.50161863,0.31175673,-0.31175673,0.50161863,50.79063,29.209285)">
                <ellipse
                        style="fill:none;fill-opacity:1;stroke:#f6c783;stroke-width:0.956479;stroke-linecap:round;stroke-miterlimit:7.4;stroke-dasharray:none;stroke-opacity:1;paint-order:markers stroke fill"
                        id="path8"
                        cx="30.43018"
                        cy="165.84738"
                        rx="3.3797617"
                        ry="8.8913736"
                        transform="matrix(0.61559496,-0.78806272,0.61559496,0.78806272,0,0)"/>
                <ellipse
                        style="fill:none;fill-opacity:1;stroke:#f6c783;stroke-width:0.946284;stroke-linecap:round;stroke-miterlimit:7.4;stroke-dasharray:none;stroke-opacity:1;paint-order:markers stroke fill"
                        id="ellipse8"
                        cx="165.21602"
                        cy="-28.835144"
                        rx="3.3437357"
                        ry="8.7965975"
                        transform="matrix(0.62265784,0.78249423,-0.62265784,0.78249423,0,0)"/>
                <ellipse
                        style="fill:none;fill-opacity:1;stroke:#f6c783;stroke-width:0.872799;stroke-linecap:round;stroke-miterlimit:7.4;stroke-dasharray:none;stroke-opacity:1;paint-order:markers stroke fill"
                        id="ellipse9"
                        cx="106.71725"
                        cy="-120.82748"
                        rx="2.9517732"
                        ry="8.4771423"
                        transform="rotate(90)"/>
                <circle
                        style="fill:#f6c783;fill-opacity:1;stroke:#f6c783;stroke-width:0.839999;stroke-linecap:round;stroke-miterlimit:7.4;stroke-dasharray:none;stroke-opacity:1;paint-order:markers stroke fill"
                        id="path9"
                        cx="120.82748"
                        cy="106.71725"
                        r="1.0502768"/>
            </g>
        </g>
    </g>
</svg>
